<svg width="103" height="33" viewBox="0 0 103 33" fill="none" xmlns="http://www.w3.org/2000/svg">
<g clip-path="url(#clip0_1_55)">
<path d="M25.6481 32.3891L82.7302 27.1782H20.7006L25.6481 32.3891Z" fill="white" fill-opacity="0.8"/>
<path d="M95.9611 5.68213C94.79 5.71093 93.6518 6.09546 92.6833 6.78945V6.07295H88.849V23.7901H92.6833V13.4334C92.6563 12.9796 92.7179 12.5249 92.8642 12.0971C93.0105 11.6694 93.2384 11.2778 93.534 10.9464C93.8295 10.615 94.1863 10.351 94.5825 10.1704C94.9787 9.9899 95.4057 9.89676 95.8374 9.89676C96.269 9.89676 96.6961 9.9899 97.0923 10.1704C97.4884 10.351 97.8453 10.615 98.1408 10.9464C98.4363 11.2778 98.6643 11.6694 98.8106 12.0971C98.9569 12.5249 99.0184 12.9796 98.9914 13.4334V23.8552H102.826V13.4334C102.826 9.13436 100.043 5.68213 95.9611 5.68213Z" fill="white" fill-opacity="0.8"/>
<path d="M80.0105 5.61572C75.5577 5.61572 72.4037 9.71932 72.4037 14.9302C72.4037 20.4017 76.3617 24.2447 80.3816 24.2447C82.4224 24.2447 84.9581 23.5282 87.1226 20.2714L83.7212 18.187C81.1237 22.2255 76.7328 20.2063 76.238 16.1027H87.2463C88.2358 9.84959 84.3396 5.61572 80.0105 5.61572ZM76.4854 12.6505C77.2894 8.54686 82.608 8.28632 83.3501 12.6505H76.4854Z" fill="white" fill-opacity="0.8"/>
<path d="M64.2453 17.9272C64.2112 18.7391 64.3328 19.5499 64.6027 20.3113C64.8727 21.0727 65.2854 21.7689 65.8165 22.3586C66.3475 22.9483 66.9858 23.4193 67.6934 23.7434C68.401 24.0676 69.1634 24.2383 69.935 24.2454C71.2386 24.1973 72.5118 23.8174 73.6456 23.1381L71.1719 19.6207C70.792 19.9061 70.3396 20.065 69.8731 20.0767C69.6183 20.0691 69.3677 20.0062 69.1369 19.8921C68.9062 19.778 68.7002 19.615 68.5319 19.4133C68.3637 19.2116 68.2366 18.9755 68.1588 18.7198C68.081 18.4642 68.0541 18.1943 68.0797 17.9272V10.3062H71.3574V6.07234H68.0797V1.64307H64.2453V6.07234H62.2045V10.3062H64.2453V17.9272Z" fill="white" fill-opacity="0.8"/>
<path d="M53.7801 24.2458C54.9511 24.217 56.0894 23.8325 57.0578 23.1385V23.7899H60.8922V6.07275H57.0578V16.4946C57.0848 16.9483 57.0233 17.4031 56.877 17.8308C56.7307 18.2585 56.5027 18.6501 56.2072 18.9815C55.9117 19.3129 55.5548 19.577 55.1587 19.7575C54.7625 19.938 54.3354 20.0312 53.9038 20.0312C53.4721 20.0312 53.0451 19.938 52.6489 19.7575C52.2527 19.577 51.8959 19.3129 51.6004 18.9815C51.3048 18.6501 51.0769 18.2585 50.9306 17.8308C50.7843 17.4031 50.7227 16.9483 50.7497 16.4946V6.07275H46.9154V16.4946C46.9154 20.7936 49.6984 24.2458 53.7801 24.2458Z" fill="white" fill-opacity="0.8"/>
<path d="M36.3506 16.5587L42.0403 23.854H47.3589L39.7521 14.4092L46.3075 6.07175H40.989L36.3506 12.2597V0.209473H32.4545V23.854H36.3506V16.5587Z" fill="white" fill-opacity="0.8"/>
<path d="M26.4484 23.0071V23.7888H30.2827V6.07168H26.4484V6.85331C25.4034 6.05913 24.15 5.62665 22.8614 5.61572C18.5323 5.61572 15.1927 9.78445 15.1927 14.9302C15.1927 20.076 18.4705 24.2447 22.8614 24.2447C24.1515 24.2439 25.4079 23.8105 26.4484 23.0071ZM19.0889 14.9954C19.0889 12.1945 20.635 9.97986 22.7996 9.97986C24.9641 9.97986 26.4484 12.1945 26.4484 14.9954C26.4484 17.7962 24.9641 20.0109 22.7996 20.0109C20.635 20.0109 19.0889 17.7962 19.0889 14.9954Z" fill="white" fill-opacity="0.8"/>
<path d="M13.9605 9.26403C13.9589 7.24335 13.196 5.30593 11.8394 3.8771C10.4828 2.44827 8.64332 1.64479 6.72478 1.64307H0.169312V23.7894H4.18918V16.9501H6.97216L11.8578 23.7894H16.8672L10.9302 15.5171C11.8776 14.8105 12.6483 13.8725 13.1761 12.7834C13.7039 11.6943 13.973 10.4867 13.9605 9.26403ZM6.78663 12.7814H4.18918V5.87693H6.78663C7.65594 5.87693 8.48964 6.24065 9.10434 6.88807C9.71903 7.53549 10.0644 8.41357 10.0644 9.32916C10.0644 10.2448 9.71903 11.1228 9.10434 11.7703C8.48964 12.4177 7.65594 12.7814 6.78663 12.7814Z" fill="white" fill-opacity="0.8"/>
</g>
<defs>
<clipPath id="clip0_1_55">
<rect width="102.661" height="32.1774" fill="white" transform="translate(0.169312 0.209473)"/>
</clipPath>
</defs>
</svg>
