<svg width="123" height="38" viewBox="0 0 123 38" fill="none" xmlns="http://www.w3.org/2000/svg">
<g clip-path="url(#clip0_1_80)">
<path d="M74.864 21.4366C74.864 21.4366 74.6182 20.4832 74.6182 19.7766V8.72172H78.808V30.0148L65.394 18.2773C64.6763 17.6329 64.2516 16.9133 64.2516 16.9133C64.2516 16.9133 64.4642 17.7067 64.4642 18.3932L64.4606 29.5343H60.2683V8.32471L73.5591 19.8265C74.2719 20.4644 74.864 21.4366 74.864 21.4366Z" fill="white" fill-opacity="0.8"/>
<path d="M112.801 8.72705C119.441 8.72705 121.141 11.4939 121.141 15.4705C121.141 18.3526 119.133 21.1764 115.082 21.5106L114.638 21.5332C114.638 21.5332 115.03 21.6064 115.439 22.0229L122.79 29.537H117.11L106.848 18.5261H111.957C116.534 18.5261 116.667 15.9776 116.699 15.3351C116.785 13.681 116.284 12.3585 112.793 12.3585H106.95V29.537H102.596V8.72705H112.801Z" fill="white" fill-opacity="0.8"/>
<path d="M80.6902 19.4274C80.6902 10.7092 87.5958 8.41846 93.4006 8.41846C95.7247 8.41846 97.7828 8.63866 99.9488 9.12376L99.9549 13.5447C98.7095 13.1399 96.2083 12.2513 93.4012 12.2513C87.8979 12.2513 85.2257 14.5103 85.2257 19.4267C85.2257 23.4539 88.1063 26.0193 93.4012 26.0193C96.2083 26.0193 99.019 25.3133 100.38 24.7829L100.372 29.0717C98.2088 29.5542 95.7253 29.8521 93.4012 29.8521C87.201 29.8528 80.6902 26.6682 80.6902 19.4274Z" fill="white" fill-opacity="0.8"/>
<path d="M33.5439 9.2583L37.6301 13.325C37.5185 13.3774 37.3898 13.4422 37.2384 13.5225C37.0019 13.6527 36.7199 13.8269 36.3822 14.0743C35.7086 14.5633 34.831 15.3444 33.7081 16.6248L25.722 25.5554C24.3534 27.0838 22.9627 28.295 21.6695 28.9355L17.5808 24.8676C17.6924 24.8125 17.8211 24.7516 17.97 24.6674C18.2066 24.5398 18.4885 24.363 18.8262 24.1195C19.498 23.626 20.3781 22.8494 21.5022 21.5671L29.4864 12.6514C30.8557 11.1249 32.2488 9.89884 33.5439 9.2583Z" fill="white" fill-opacity="0.8"/>
<path d="M17.7259 30.8464C19.5321 30.8464 21.1924 30.4682 22.319 29.8509C22.8338 29.5673 23.5687 29.0789 24.2006 28.5582C24.83 28.0394 25.7224 27.2312 26.4769 26.3834L34.471 17.478C36.4874 15.2339 37.6991 14.5409 38.4346 14.2682L42.5349 18.3725C41.6793 19.3394 31.4739 30.825 31.4739 30.825C30.7782 31.6191 30.0452 32.3852 29.5469 32.8677C29.0682 33.3341 28.2494 34.029 27.8265 34.3561C25.4264 36.2142 22.2203 37.7213 17.903 37.7213C8.12045 37.7213 0.209717 29.3076 0.209717 19.6192C0.209717 7.60058 9.09619 0.626582 17.1896 0.626582C19.6706 0.548863 21.6613 0.989919 23.2352 1.55468C24.6897 2.07734 25.788 2.70946 26.5848 3.1395C25.6427 3.77745 24.7313 4.64725 23.2291 6.34283L21.5878 8.20485C21.2102 8.05135 19.5358 7.43413 17.3863 7.50343C12.1932 7.66535 6.51342 12.1135 6.71813 19.4107C6.90874 26.2338 12.2312 30.8464 17.7259 30.8464Z" fill="white" fill-opacity="0.8"/>
<path d="M32.8416 8.40601C32.3249 8.69163 31.5919 9.17867 30.9563 9.69938C30.3287 10.2182 29.4369 11.0264 28.68 11.8723L20.6877 20.7796C18.6713 23.0237 17.459 23.7141 16.7241 23.9874L12.6238 19.8871C13.4818 18.9175 23.6854 7.43387 23.6854 7.43387C24.3829 6.63984 25.1141 5.87366 25.6124 5.38921C26.0911 4.92289 26.9099 4.23054 27.3365 3.90089C29.7323 2.04275 32.9427 0.535645 37.26 0.535645C47.0419 0.535645 54.949 8.95004 54.949 18.6358C54.949 30.6583 46.0644 37.6284 37.9691 37.6284C35.4899 37.7081 33.4974 37.267 31.9259 36.6977C30.4678 36.177 29.3652 35.541 28.5703 35.1129C29.5656 34.4031 30.4176 33.6246 31.9314 31.9154L33.5703 30.0534C33.9479 30.2043 35.6229 30.8222 37.7742 30.7548C42.9655 30.591 48.6471 26.1383 48.4424 18.843C48.25 12.0232 42.9238 7.40861 37.4322 7.40861C35.6229 7.40861 33.9699 7.78879 32.8416 8.40601Z" fill="white" fill-opacity="0.8"/>
</g>
<defs>
<clipPath id="clip0_1_80">
<rect width="122.581" height="37.1873" fill="white" transform="translate(0.209717 0.531738)"/>
</clipPath>
</defs>
</svg>
