<svg width="221" height="20" viewBox="0 0 221 20" fill="none" xmlns="http://www.w3.org/2000/svg">
<g clip-path="url(#clip0_1_65)">
<path d="M43.2241 18.6931C43.2241 18.5451 43.2241 18.3231 43.2241 18.1752C43.1406 18.1752 37.7124 18.4711 35.04 18.4711C31.5326 18.4711 26.5219 18.3971 26.5219 18.3971L3.47279 18.2491C3.47279 18.1752 3.47279 17.8792 3.47279 17.8052L26.6054 17.7312C26.6054 17.7312 31.6161 17.8052 35.1235 17.8052C37.7959 17.8052 43.1406 17.8052 43.2241 17.8052C43.2241 17.5833 43.1406 17.2133 43.1406 16.9173C43.0571 16.9173 37.7124 17.2873 35.1235 17.2873C31.6161 17.2873 26.6054 17.0653 26.6054 17.0653H20.6761L12.826 16.8433H3.5563C3.5563 16.7694 3.63981 16.4734 3.63981 16.3994C3.97385 16.4734 4.22439 16.5474 5.39354 16.5474C6.89674 16.5474 7.56484 16.2514 7.56484 16.2514C7.56484 16.2514 8.65048 16.5474 10.0701 16.5474C10.7382 16.5474 12.2415 15.9554 13.1601 16.1774C14.6633 16.5474 15.2478 15.9554 15.2478 15.9554C15.2478 15.9554 15.5819 16.3254 16.25 16.4734C16.7511 16.5474 17.4191 16.2514 17.4191 16.2514C17.4191 16.2514 18.2543 16.7694 20.6761 16.7694C23.599 16.7694 24.434 15.3636 24.434 15.3636H24.5176C24.5176 15.3636 24.434 15.7335 24.6011 16.0295C24.9351 16.6214 25.8538 16.6953 25.8538 16.6953C25.7703 15.0676 26.5219 13.9578 26.5219 13.9578H26.6054L26.4384 14.4016C26.1043 15.5855 26.6889 16.6214 26.6889 16.6214L26.9394 16.4734C26.9394 16.4734 26.6889 15.7335 26.9394 14.6976C27.1899 13.6618 27.6075 13.1438 27.6075 13.1438H27.7745C27.7745 13.1438 27.524 13.9578 27.524 14.5496C27.524 15.0676 27.858 16.3254 28.9437 16.6953C29.7788 16.9913 30.4469 16.3254 30.4469 16.3254C30.4469 16.3254 32.2841 16.7694 33.7874 16.7694C37.3783 16.7694 38.2135 16.2514 38.2135 16.2514C38.2135 16.2514 38.464 16.6214 40.3012 16.6214C41.3868 16.6214 42.222 16.5474 42.723 16.4734C42.8901 16.4734 42.9736 16.4734 43.0571 16.3994C43.0571 16.1034 42.9736 15.8815 42.8901 15.5855C41.8879 10.6282 38.631 6.33678 34.1214 3.59916L33.8709 4.26507C38.297 6.85471 41.5538 10.9241 42.4725 15.7335C41.9714 15.8815 41.2199 16.1034 40.3012 16.1034C38.8816 16.1034 38.5475 15.7335 38.5475 15.7335C38.5475 15.7335 38.0464 16.0295 37.1278 16.0295C36.2927 16.0295 35.7081 15.5115 35.7081 15.5115C35.7081 15.5115 34.873 16.2514 33.3698 16.2514C31.6161 16.2514 30.6974 15.2895 30.3634 14.8456C30.0293 14.4016 29.8623 14.0317 29.8623 14.0317H29.7788C29.7788 14.1797 29.8623 14.4016 29.9458 14.6237C30.1964 15.2156 30.3634 15.3636 30.4469 15.5115C30.5304 15.5855 30.6139 15.8074 30.3634 15.8815C30.1964 15.9554 30.1128 15.8074 30.0293 15.7335C29.9458 15.5855 29.6118 15.2156 29.4447 14.6237C29.1943 13.9578 29.1943 13.5138 29.1108 13.1438H28.9437C28.8602 13.4398 28.8602 13.9578 28.8602 14.5496C28.9437 15.2156 29.1108 15.6595 29.1943 15.8074C29.1943 15.8074 29.2778 15.8815 29.2778 15.9554C29.2778 16.1774 29.1108 16.2514 28.9437 16.2514C28.7767 16.2514 28.6097 16.1034 28.5262 15.9554C27.7745 14.8456 28.6932 12.6259 28.9437 11.96C29.3612 10.9982 29.4447 10.0362 29.4447 10.0362C29.4447 10.0362 29.9458 9.29639 30.1964 8.77841C30.5304 8.11254 30.781 7.52062 31.0315 7.29865C31.3656 7.00269 31.9501 6.2628 32.5347 5.30093C32.6182 5.15295 33.1193 4.11709 33.2028 3.89512C33.2863 3.74714 33.3698 3.52518 33.4533 3.37719C33.7039 2.48931 33.9544 1.45346 33.9544 1.30548C33.9544 1.08351 33.5368 0.93553 33.5368 0.93553C33.5368 0.93553 33.1193 0.787551 32.8687 0.787551C32.7017 0.787551 32.5347 0.93553 32.3676 1.00952C32.1171 1.08351 32.0336 1.00952 32.0336 1.00952C32.0336 1.00952 31.6995 0.861538 31.5326 0.93553C31.3656 0.93553 31.1985 1.1575 31.0315 1.1575C30.781 1.23149 30.6974 1.23149 30.6974 1.23149C30.6974 1.23149 30.4469 1.1575 30.2799 1.1575C30.1128 1.23149 29.9458 1.30548 29.6118 1.52745C27.2734 0.787551 24.8516 0.417603 22.3463 0.417603C10.9053 0.417603 1.55203 8.55647 1.38501 18.6931C1.38501 18.767 1.38501 19.211 1.38501 19.211H43.2241C43.2241 19.211 43.2241 18.767 43.2241 18.6931ZM16.5841 14.9936C16.5006 14.9936 16.5841 14.9196 16.5006 14.9196C17.0852 13.2918 18.4213 9.96228 20.5926 7.44663C20.8431 7.52062 21.0101 7.6686 21.2607 7.74259C19.6739 9.29639 17.5861 12.3299 16.5841 14.9936ZM17.8367 15.5115C18.2543 14.0317 19.3399 10.9241 21.6783 7.96456C21.9288 8.11254 22.0957 8.18653 22.3463 8.33454C20.7596 10.1842 18.8389 13.1438 18.0037 15.5855C17.9202 15.5855 17.9202 15.5115 17.8367 15.5115ZM19.507 15.8815C19.4235 15.8815 19.507 15.8815 19.4235 15.8815C19.7574 14.6976 20.6761 11.59 22.8474 8.55647C23.0979 8.70446 23.2649 8.77841 23.432 8.92639C21.9288 10.9241 20.2585 13.6618 19.507 15.8815ZM21.0937 15.8815C21.0101 15.8815 21.0101 15.8815 21.0101 15.8815C21.3442 14.7716 22.0957 12.034 23.9331 9.29639C24.1836 9.44438 24.434 9.59236 24.5176 9.74035C23.1814 11.5161 21.7618 13.8837 21.0937 15.8815ZM26.6054 10.9241C26.1878 10.9241 25.6032 10.7762 25.4362 10.4802C25.5197 10.9982 26.1878 11.442 26.7724 11.442C26.6054 11.442 26.5219 11.5161 26.3549 11.5161C25.6032 11.5161 24.9351 10.9241 24.9351 10.2582C24.9351 10.1842 24.9351 10.0362 24.9351 9.96228C25.5197 10.4062 26.7724 10.9982 27.524 10.1103V10.1842C27.4405 10.5542 27.0229 10.9241 26.6054 10.9241ZM28.9437 8.03855C28.9437 8.26052 28.7767 8.33454 28.6097 8.40849C28.5262 8.48252 28.2756 8.55647 28.2756 8.63043H28.1921C28.1921 8.63043 28.1086 8.55647 28.0251 8.55647C28.0251 8.48252 28.0251 8.48252 28.0251 8.48252V8.40849V8.26051C28.0251 8.26051 27.9416 8.11254 28.0251 7.96456C28.0251 7.74259 28.2756 7.59461 28.2756 7.59461H28.3591C28.3591 7.59461 28.2756 7.74259 28.1921 7.89057C28.1921 7.96455 28.1086 8.18653 28.1921 8.33454V8.48252L28.2756 8.55647L28.3591 8.48252C28.5262 8.40849 28.5262 8.33454 28.5262 8.33454C28.5262 8.33454 28.3591 8.18653 28.4426 8.03855C28.5262 7.89057 28.7767 7.89057 28.7767 7.89057C28.8602 7.6686 28.7767 7.52062 28.7767 7.52062L28.9437 7.59461C28.8602 7.52062 28.9437 7.74259 28.9437 8.03855ZM30.0293 1.74942C30.2799 1.67543 30.3634 1.52745 30.6139 1.45346C30.8645 1.37947 31.0315 1.45346 31.1985 1.45346C31.3656 1.45346 31.6161 1.23149 31.783 1.23149C31.9501 1.23149 32.0336 1.30548 32.2006 1.30548C32.2841 1.45346 32.7852 1.1575 32.8687 1.1575C32.9522 1.1575 33.2863 1.1575 33.2028 1.45346C33.1193 1.67543 32.9522 2.34134 32.6182 3.22922C32.5347 3.45118 32.3676 3.74714 32.2006 4.0431C32.0336 4.33906 31.8665 4.70901 31.6161 5.00497C30.6974 6.33678 29.7788 6.04082 28.0251 6.78072C26.6054 7.37264 26.0208 7.74259 25.8538 7.96456C25.6868 7.81658 25.6032 7.81658 25.4362 7.74259C25.6868 7.52062 26.2714 7.15067 27.4405 6.63274C28.6932 6.04082 30.781 5.30093 31.1985 4.63502C31.1985 4.56103 31.1985 4.56103 31.1985 4.48704C30.6974 4.783 30.2799 4.93097 30.1128 5.07896C28.1086 5.96684 27.357 6.18881 26.4384 6.63274C26.0208 6.85471 25.3527 7.15067 24.9351 7.44663C24.8516 7.37264 24.6846 7.29865 24.6011 7.22466C25.0186 6.9287 25.6032 6.63274 26.1878 6.33678C27.1064 5.96684 27.858 5.59689 30.0293 4.48704C30.1964 4.41305 31.282 3.82114 32.1171 3.22922C32.1171 3.15522 32.1171 3.08123 32.2006 3.00725C31.4491 3.37719 29.0272 4.56103 28.5262 4.783C26.5219 5.67088 26.6054 5.59689 25.6868 6.04082C25.1022 6.33678 24.5176 6.63274 24.1001 6.9287C24.0166 6.85471 23.8495 6.78073 23.766 6.70673C24.2671 6.41077 24.6846 6.11481 25.3527 5.81885C26.2714 5.37492 26.3549 5.30093 28.4426 4.41305C29.4447 3.96911 31.282 2.85926 32.2841 2.34134C32.2841 2.26734 32.2841 2.26734 32.2841 2.19336C31.282 2.71129 28.3591 4.0431 27.9416 4.26507C25.9373 5.07896 25.6868 5.15295 24.7681 5.59689C24.2671 5.81885 23.766 6.11481 23.3485 6.33678C23.2649 6.2628 23.1814 6.18881 23.0979 6.11481C23.432 5.89285 24.0166 5.52289 24.7681 5.15295C25.6868 4.70901 25.8538 4.63502 27.858 3.74714C28.1086 3.67315 29.1108 3.15522 30.0293 2.6373C30.2799 2.48931 30.6139 2.34134 30.8645 2.19336C31.115 2.04538 31.282 1.8974 31.4491 1.82341L31.3656 1.74942C30.948 1.8974 30.3634 2.19335 30.1964 2.26734C29.1108 2.78527 27.7745 3.37719 27.357 3.52518C25.3527 4.41305 25.1022 4.48704 24.1836 4.93097C23.6825 5.15295 23.0979 5.44891 22.7639 5.74486C22.6803 5.67088 22.5968 5.59689 22.5133 5.52289C22.9309 5.22693 23.5155 4.85699 24.1836 4.56103C25.1022 4.11709 25.2692 4.0431 27.2734 3.15522C27.6075 3.00725 27.9416 2.85926 28.1921 2.71129C28.2756 2.71129 29.1943 2.26734 30.0293 1.74942ZM23.1814 1.30548C25.1022 1.30548 27.0229 1.52745 28.7767 2.04538C28.4426 2.26734 27.9416 2.48931 27.2734 2.78527C24.9351 3.82114 24.6846 3.89512 23.6825 4.33906C23.0144 4.63502 22.5133 4.93097 22.0957 5.22693C22.0957 5.22693 21.6783 4.70901 21.4277 4.56103C21.1772 4.41305 20.5926 4.26507 20.4255 4.19108C20.0915 4.0431 20.008 3.89512 19.507 3.74714C19.0894 3.59916 18.7553 3.67315 18.5048 3.67315C18.2543 3.59916 18.0037 3.52518 17.5861 3.52518C17.3356 3.52518 17.0016 3.67315 16.7511 3.67315C16.417 3.67315 16.1665 3.59916 15.916 3.59916C15.6654 3.67315 15.3314 3.89512 14.9973 3.89512C14.7468 3.96911 14.4128 3.89512 14.2458 3.89512C14.0787 3.96911 13.6612 4.26507 13.4106 4.33906C13.2436 4.41305 12.7425 4.41305 12.826 4.783C12.826 5.07896 13.5776 5.15295 13.5776 5.15295C13.5776 5.15295 16.8346 5.52289 20.008 7.00269C19.5904 7.52062 19.0894 8.03855 18.7553 8.63043C18.5048 8.55647 18.1707 8.48252 18.0037 8.48252C17.6697 8.48252 17.3356 8.63043 17.0852 8.55647C16.5841 8.55647 16.5841 8.48252 15.9995 8.55647C15.5819 8.63043 15.5819 8.70446 15.2478 8.77841C14.9973 8.85244 14.7468 8.77841 14.3293 8.85244C14.1622 8.92639 13.8282 9.22236 13.5776 9.29639C13.4106 9.37035 13.0766 9.37035 12.826 9.51833C12.659 9.66631 12.659 9.8143 12.2415 9.96228C11.991 10.1103 11.8239 10.0362 11.5734 10.2582C11.4064 10.5542 11.4064 10.7762 10.9888 11.0721C10.4877 11.442 10.4877 11.738 10.5712 11.812C10.7382 12.108 11.4899 11.812 11.4899 11.812C11.4899 11.812 14.1622 10.9982 17.3356 10.8502C16.5006 12.3299 15.8324 13.7358 15.4149 14.6976C15.3314 14.9196 15.2478 15.1416 15.1643 15.2895C15.0808 15.2895 15.0808 15.2895 15.0808 15.2895C14.9138 15.1416 14.9138 14.9196 14.9973 14.4016C15.0808 13.8837 15.5819 12.8478 15.7489 12.6259H15.5819C15.4149 12.8478 14.9138 13.6618 14.8303 13.8098C14.6633 14.1058 14.5798 14.1797 14.2458 14.8456C14.1622 14.9936 13.9952 15.2895 13.7447 15.2895C13.5776 15.2895 13.4106 15.2156 13.4106 15.0676C13.4106 14.9936 13.4941 14.8456 13.5776 14.8456C13.9952 14.2537 14.3293 13.6618 14.4128 13.3658H14.2458C14.2458 13.3658 13.0766 15.7335 10.5712 15.7335C9.73613 15.7335 8.8175 15.3636 8.8175 15.3636C8.8175 15.3636 7.64835 15.8074 6.06164 15.8074C4.80897 15.8074 4.05737 15.5855 3.72332 15.5115C5.47706 7.52062 13.2436 1.30548 23.1814 1.30548Z" fill="white" fill-opacity="0.8"/>
<path d="M81.1475 18.7661L80.9804 18.6921C79.9783 18.2482 79.6442 16.9903 79.1432 15.8805L74.049 3.89417H69.2054V4.26412L69.4559 4.33811C69.4559 4.33811 69.7065 4.41209 69.79 4.48608C70.0404 4.63406 70.291 4.93002 69.9569 5.66992C69.9569 6.03987 69.79 6.33583 69.79 6.33583L65.7814 15.8805C65.3638 16.9164 65.0297 18.2482 64.0277 18.6921L63.6936 18.8401V19.21H69.1219V18.8401L68.7043 18.6921C68.2032 18.5441 68.1197 18.1002 68.6208 16.8424L69.2054 15.1406H74.9676C75.1346 15.5106 75.3016 16.0285 75.5522 16.7684C75.8027 17.5082 76.2203 18.4702 75.6357 18.7661L75.3016 18.9141V19.2841H81.1475V18.7661ZM74.1325 12.6249H70.291L72.2118 7.88962L74.1325 12.6249Z" fill="white" fill-opacity="0.8"/>
<path d="M116.389 3.89417V4.26412L116.806 4.41209C117.475 4.63406 117.391 6.03987 117.391 6.92775V16.1765C117.391 16.9164 117.391 18.4702 116.806 18.6921L116.389 18.8401V19.21H121.9V18.8401L121.482 18.6921C120.814 18.4702 120.898 16.9164 120.898 16.1765V6.92775C120.898 5.66992 121.065 4.56008 121.482 4.41209L121.9 4.26412V3.89417H116.389Z" fill="white" fill-opacity="0.8"/>
<path d="M95.6702 3.89417V4.26412L96.0877 4.41209C96.7559 4.63406 96.6723 6.03987 96.6723 6.92775V16.1765C96.6723 16.9164 96.6723 18.4702 96.0877 18.6921L95.6702 18.8401V19.21H101.182V18.8401L100.765 18.6921C100.096 18.4702 100.18 16.9164 100.18 16.1765V6.92775C100.18 5.66992 100.347 4.56008 100.765 4.41209L101.182 4.26412V3.89417H95.6702Z" fill="white" fill-opacity="0.8"/>
<path d="M64.6939 2.56078C63.4413 1.45093 61.5204 0.859009 59.4327 0.859009H52.3342V1.22896L52.6683 1.30295C53.5869 1.6729 53.5034 3.67062 53.5034 5.15041V14.843V15.213C53.5034 16.3229 53.5034 18.3206 52.6683 18.6166L52.3342 18.7646V19.1345H58.8482V18.7646L58.5976 18.6166C57.4284 17.9506 57.4284 16.4709 57.4284 14.9171V11.6615L58.0965 11.8835C58.0965 11.8835 59.1821 12.2534 60.1843 12.2534C63.1907 12.2534 66.4476 10.4037 66.4476 6.40824C66.4476 4.92845 65.8631 3.59663 64.6939 2.56078ZM58.3471 10.8476L57.7625 10.9216H57.4284V4.04057C57.846 3.96658 58.3471 3.96658 59.0151 3.96658C60.3513 3.96658 61.4369 4.26254 62.0215 4.85446C62.6061 5.37239 62.8567 6.03829 62.8567 7.00016C62.8567 9.29384 60.5184 10.6996 58.3471 10.8476Z" fill="white" fill-opacity="0.8"/>
<path d="M153.46 0.858324H150.537H142.186V1.30226L142.687 1.45024C143.439 1.7462 143.439 3.44796 143.439 4.40983V15.5083C143.439 16.3962 143.439 18.2459 142.687 18.5419L142.186 18.6899V19.1338H148.449V18.6899L147.948 18.5419C147.197 18.2459 147.197 16.4702 147.197 15.5083V11.8828H150.871C150.871 11.8828 152.458 11.7348 152.709 12.3267L152.792 12.5487L153.21 12.6227L153.46 7.73937H152.876L152.792 8.03533C152.625 8.40526 151.205 8.55325 150.788 8.47929H147.113C147.113 6.85149 147.113 4.85377 147.113 3.96589H151.623C152.709 3.96589 153.293 4.18786 153.46 4.70579L153.543 5.00174H154.044L155.213 0.636353C155.38 0.784332 153.877 0.858324 153.46 0.858324Z" fill="white" fill-opacity="0.8"/>
<path d="M93.8393 15.0655L93.7558 15.1395C93.5887 15.2875 93.4217 15.3614 93.4217 15.3614C92.4195 15.9534 90.7493 16.6193 89.0794 16.6193C87.7433 16.6193 86.6576 16.2493 85.7389 15.5094C84.6534 14.5476 84.0688 12.9938 84.0688 11.218C84.0688 8.40643 85.906 6.48266 88.5783 6.48266C89.8311 6.48266 91.0833 6.85261 92.336 7.59251L92.6701 7.81448L93.3382 8.18443V7.51852V4.48494V4.18898L92.8371 4.11499C91.1668 3.74504 89.8311 3.52307 88.6619 3.52307C86.3235 3.52307 84.3193 4.26297 82.8161 5.59479C81.2294 7.00059 80.3108 9.14627 80.3108 11.5139C80.3108 13.9556 81.1458 15.9534 82.7326 17.3592C84.3193 18.765 86.6576 19.5049 89.33 19.5049C90.6661 19.5049 91.9185 19.2829 92.9206 18.765H93.0041L93.1712 18.691L93.2547 18.543L94.4239 14.9915H93.8393V15.0655Z" fill="white" fill-opacity="0.8"/>
<path d="M136.516 15.0655L136.015 15.3614C135.013 15.9534 133.342 16.6193 131.672 16.6193C130.336 16.6193 129.25 16.2493 128.331 15.5094C127.246 14.5476 126.661 12.9938 126.661 11.218C126.661 8.40643 128.499 6.48266 131.171 6.48266C132.424 6.48266 133.676 6.85261 134.929 7.59251L135.931 8.18443V4.48494V4.18898L135.514 4.11499C133.843 3.74504 132.507 3.52307 131.338 3.52307C129 3.52307 126.995 4.26297 125.492 5.59479C123.905 7.00059 122.987 9.14627 122.987 11.5139C122.987 13.9556 123.822 15.9534 125.408 17.3592C126.995 18.765 129.334 19.5049 132.006 19.5049C133.342 19.5049 134.595 19.2829 135.597 18.765L135.848 18.691L137.1 14.9915H136.516V15.0655Z" fill="white" fill-opacity="0.8"/>
<path d="M113.458 3.8898H108.866H103.354V4.25975L103.771 4.40772C104.439 4.62969 104.356 6.0355 104.356 6.92338V16.1721C104.356 16.912 104.356 18.4658 103.771 18.6878L103.354 18.8357V19.2057H108.866V18.8357L108.448 18.6878C107.78 18.4658 107.864 16.912 107.864 16.1721V13.1385H110.87C110.87 13.1385 112.205 13.0646 112.372 13.5084L112.456 13.7305L112.79 13.8044L113.04 9.73497H112.623L112.539 9.95698C112.456 10.253 111.204 10.4009 110.87 10.3269H107.78C107.78 8.99513 107.78 7.29333 107.78 6.55343H111.871C112.79 6.55343 113.291 6.7754 113.458 7.14535L113.542 7.36731H113.959L114.961 3.74182C115.128 3.74182 113.792 3.8898 113.458 3.8898Z" fill="white" fill-opacity="0.8"/>
<path d="M184.275 3.89394V4.26388L184.609 4.41187C185.361 4.8558 185.444 5.52171 185.444 6.77954V13.8086C183.106 10.849 177.929 3.81995 177.929 3.81995H173.92V4.1899L174.254 4.33787C175.006 4.78182 175.089 5.52171 175.089 6.77954V15.9543C175.089 17.2121 175.089 18.174 174.254 18.6179L174.004 18.7659V19.1358H179.098V18.7659L178.764 18.6179C178.012 18.4699 178.012 17.2121 178.012 15.9543V9.29516L183.022 15.6583C183.941 16.8422 185.444 18.5439 187.031 18.9878C188.284 19.3578 188.534 19.2838 188.534 19.2838V6.85353C188.534 5.5957 188.534 4.8558 189.369 4.41187L189.703 4.26388V3.89394H184.275Z" fill="white" fill-opacity="0.8"/>
<path d="M204.817 6.11363C203.147 4.63383 200.642 3.81995 197.552 3.81995H191.289V4.1899L191.623 4.26388L191.79 4.33787C192.542 4.55984 192.375 6.11363 192.375 6.92752V16.1762C192.375 17.2861 192.375 18.248 191.456 18.7659L191.205 18.9139V19.2098H197.385C203.063 19.2098 207.072 16.0282 207.072 11.4409C207.072 9.29517 206.321 7.44545 204.817 6.11363ZM201.894 15.3623C200.725 16.3242 199.139 16.9161 197.135 16.9161C196.717 16.9161 196.467 16.8422 195.966 16.7682V6.40959C196.634 6.26161 196.968 6.18762 197.552 6.18762C199.473 6.18762 200.892 6.63156 201.894 7.51944C202.896 8.40734 203.398 9.8871 203.398 11.6628C203.398 13.1427 202.813 14.4744 201.894 15.3623Z" fill="white" fill-opacity="0.8"/>
<path d="M170.825 16.3984V6.77977C170.825 5.66992 170.825 4.63406 171.661 4.41209L171.995 4.33811L171.744 3.89417H166.065V4.26412L166.399 4.33811C167.234 4.63406 167.151 5.8179 167.151 6.63179V13.9568C167.151 14.6966 167.151 15.0666 166.733 15.5845C166.065 16.3984 164.812 16.9164 163.476 16.9164C162.391 16.9164 161.64 16.6944 161.055 16.1765C160.304 15.5845 159.97 14.4747 159.97 13.0689V6.55779C159.97 5.66992 159.97 4.48608 160.721 4.26412L161.055 4.19012V3.89417H155.209V4.26412L155.543 4.33811C156.295 4.56008 156.378 5.96588 156.295 7.07573V13.3649C156.295 14.9187 156.295 16.4724 157.715 17.8782C158.884 18.9881 160.638 19.58 162.642 19.58C164.061 19.58 165.815 18.9141 167.067 18.0262V19.21H171.828V18.8401L171.494 18.7661C170.825 18.4702 170.742 17.5082 170.825 16.3984Z" fill="white" fill-opacity="0.8"/>
<path d="M219.609 14.5478C219.609 15.7316 219.024 16.9155 217.939 17.8034C216.686 18.9132 214.932 19.5051 213.011 19.5051C211.508 19.5051 210.088 19.2831 208.752 18.8392H208.668L208.501 18.7652V18.6172V18.5432L207.833 15.8056L207.75 15.3617L207.666 14.9918H208.084L208.668 15.5836C209.921 16.6195 211.675 17.0635 213.262 17.0635C214.347 17.0635 215.934 16.3976 215.934 15.2876C215.934 14.0298 214.598 13.438 212.844 12.698C210.756 11.8101 208.251 10.7003 208.251 7.8887C208.251 4.70714 211.591 3.59729 214.431 3.59729C215.684 3.59729 216.853 3.74527 217.939 4.11522H218.022L218.273 4.18921V4.41118V4.48517V6.4089V7.07482V7.51875L217.688 7.1488L217.103 6.85284C216.602 6.55689 215.35 6.11294 214.264 6.11294C213.846 6.11294 212.928 6.18694 212.343 6.70486C212.093 6.92683 211.925 7.22279 211.925 7.66673C211.925 8.77659 213.429 9.44248 215.016 10.1084C217.02 10.9963 219.609 12.1061 219.609 14.5478Z" fill="white" fill-opacity="0.8"/>
</g>
<defs>
<clipPath id="clip0_1_65">
<rect width="219.113" height="19.9193" fill="white" transform="translate(0.943604 -0.000366211)"/>
</clipPath>
</defs>
</svg>
