<svg width="185" height="36" viewBox="0 0 185 36" fill="none" xmlns="http://www.w3.org/2000/svg">
<g clip-path="url(#clip0_1_88)">
<path fill-rule="evenodd" clip-rule="evenodd" d="M16.4068 24.3744L21.5258 29.6048L17.2555 34.1531C15.8708 35.628 13.6252 35.628 12.2405 34.1531L1.5836 22.8029C0.198858 21.3276 0.198858 18.9364 1.5836 17.4615C2.96879 15.9867 5.2139 15.9867 6.59864 17.4615L14.748 26.1411L16.4068 24.3744ZM17.7375 22.9571L22.2714 18.1281L27.286 23.4695L23.1111 27.9162L17.7375 22.9571Z" fill="#CECCD3"/>
<path fill-rule="evenodd" clip-rule="evenodd" d="M38.2479 27.8133L32.9047 22.8215L45.4611 9.44816C46.8458 7.97332 49.0909 7.97332 50.4761 9.44816C51.8609 10.923 51.8609 13.3142 50.4761 14.7895L38.2479 27.8133ZM36.5862 29.5832L32.298 34.1504C30.9128 35.6252 28.6677 35.6252 27.283 34.1504L9.10313 14.7876C7.71839 13.3123 7.71839 10.9211 9.10313 9.44627C10.4879 7.97095 12.733 7.97095 14.1182 9.44627L29.7905 26.1383L31.5532 24.2609L36.5862 29.5832Z" fill="#CECCD3"/>
<path fill-rule="evenodd" clip-rule="evenodd" d="M30.5472 21.5976L35.5385 16.2314L44.8409 26.1391L52.9884 17.4614C54.3736 15.9866 56.6187 15.9866 58.0035 17.4614C59.3882 18.9367 59.3882 21.3279 58.0035 22.8028L47.3484 34.1511C45.9636 35.626 43.7185 35.626 42.3338 34.1511L30.5472 21.5976ZM28.4794 19.3953L16.6305 6.77542C15.2457 5.30058 15.2457 2.90939 16.6305 1.43455C18.0157 -0.0407646 20.2608 -0.0407646 21.6455 1.43455L33.5068 14.0675L28.4794 19.3953Z" fill="#CECCD3"/>
<path fill-rule="evenodd" clip-rule="evenodd" d="M42.9572 1.4381C41.5725 -0.0367404 39.3274 -0.0367404 37.9422 1.4381L22.2716 18.1283L27.2867 23.4696L42.9572 6.77945C44.342 5.30413 44.342 2.91294 42.9572 1.4381Z" fill="#CECCD3"/>
<path fill-rule="evenodd" clip-rule="evenodd" d="M77.398 4.04295H73.0372V31.3253H89.0151V27.2051H77.398V4.04295ZM98.4529 12.2462C101.104 12.2462 102.883 13.3969 103.86 14.8074L104.07 12.6174H107.837V31.3253H104.07L103.86 29.1353C102.883 30.5458 101.104 31.6965 98.4529 31.6965C93.6734 31.6965 90.429 27.5763 90.429 21.9714C90.429 16.3293 93.6734 12.2462 98.4529 12.2462ZM99.3599 16.1808C96.6388 16.1808 94.6851 18.4451 94.6851 21.9714C94.6851 25.4977 96.6388 27.7619 99.3599 27.7619C101.453 27.7619 102.709 26.5741 103.651 24.978V18.9647C102.709 17.3686 101.453 16.1808 99.3599 16.1808ZM118.391 6.34432H114.205V12.6174H110.891V16.4035H114.205V24.7182C114.205 29.2467 116.752 31.6965 120.764 31.6965C122.508 31.6965 123.799 31.1769 124.671 30.583L123.554 27.0938C123.031 27.4279 122.264 27.6877 121.147 27.6877C119.508 27.6877 118.391 26.5741 118.391 24.6811V16.4035H123.694V12.6174H118.391V6.34432ZM132.818 6.34432H128.631V12.6174H125.317V16.4035H128.631V24.7182C128.631 29.2467 131.178 31.6965 135.19 31.6965C136.934 31.6965 138.225 31.1769 139.097 30.583L137.981 27.0938C137.458 27.4279 136.69 27.6877 135.574 27.6877C133.934 27.6877 132.818 26.5741 132.818 24.6811V16.4035H138.121V12.6174H132.818V6.34432ZM146.093 12.6174H141.907V31.3253H146.093V12.6174ZM144 3.89447C142.535 3.89447 141.418 5.04516 141.418 6.64127C141.418 8.23738 142.535 9.38807 144 9.38807C145.5 9.38807 146.616 8.23738 146.616 6.64127C146.616 5.04516 145.5 3.89447 144 3.89447ZM158.74 12.2462C153.333 12.2462 149.74 16.3293 149.74 21.9714C149.74 27.5763 153.368 31.6965 158.775 31.6965C161.95 31.6965 164.357 30.1747 165.927 27.5763L162.927 25.0894C162.089 26.5741 160.729 27.799 158.81 27.799C155.705 27.799 153.996 25.2378 153.996 21.9714C153.996 18.6678 155.635 16.1437 158.775 16.1437C160.729 16.1437 162.02 17.3315 162.822 18.8163L165.857 16.3664C164.287 13.7681 161.95 12.2462 158.74 12.2462ZM176.167 12.2462C181.574 12.2462 184.226 16.552 184.226 21.7858V23.3448H171.806C171.911 26.3143 173.585 27.9475 176.516 27.9475C178.574 27.9475 180.074 26.9824 180.877 25.7946L183.772 28.3187C182.028 30.5458 179.725 31.6965 176.481 31.6965C171.039 31.6965 167.55 27.6134 167.55 22.0085C167.55 16.3664 171.108 12.2462 176.167 12.2462ZM176.097 15.8096C173.62 15.8096 171.946 17.5542 171.806 20.1525H180.109C180.004 17.5913 178.609 15.8096 176.097 15.8096Z" fill="white" fill-opacity="0.8"/>
</g>
<defs>
<clipPath id="clip0_1_88">
<rect width="183.871" height="34.9354" fill="white" transform="translate(0.564575 0.33197)"/>
</clipPath>
</defs>
</svg>
