<svg width="85" height="32" viewBox="0 0 85 32" fill="none" xmlns="http://www.w3.org/2000/svg">
<path d="M9.29949 8.70291H0.910156L0.910156 0.880249H26.9834V8.70291H18.5922V31.5254H9.29949V8.70291ZM28.4262 0.880249H53.778V8.70291H37.7197V12.4763H53.778V19.8374H37.7197V23.7027H53.778V31.5254H28.4262V0.880249ZM55.3107 0.880249H70.5577C80.5726 0.880249 84.0898 8.42686 84.0898 16.1574C84.0898 25.544 79.2171 31.5254 68.7529 31.5254H55.3107V0.880249ZM64.6042 23.7027H68.2112C73.985 23.7027 74.7988 18.9182 74.7988 16.0656C74.7988 14.1321 74.1673 8.79501 67.4898 8.79501H64.5118L64.6042 23.7027Z" fill="white" fill-opacity="0.8"/>
</svg>
