<svg width="135" height="27" viewBox="0 0 135 27" fill="none" xmlns="http://www.w3.org/2000/svg">
<g clip-path="url(#clip0_1_46)">
<path d="M89.4959 23.0486C91.2629 23.0873 92.9727 22.4092 94.2504 21.163L96.6096 23.7549C95.0509 25.3887 92.8963 26.5987 89.5381 26.5987C83.7845 26.5987 80.0712 22.7046 80.0712 17.4348C80.0481 16.2537 80.2534 15.0795 80.6753 13.9795C81.0973 12.8794 81.7277 11.8751 82.5304 11.0239C83.3331 10.1728 84.2924 9.49149 85.3534 9.01909C86.4144 8.5467 87.5562 8.29244 88.7136 8.27087H89.0325C94.7439 8.27087 97.9818 12.7054 97.6989 18.8597H84.1817C84.6632 21.4148 86.4206 23.0425 89.4959 23.0425V23.0486ZM93.6125 15.9054C93.2514 13.5223 91.8551 11.7657 89.0566 11.7657C87.881 11.6956 86.7233 12.0843 85.8181 12.853C84.9129 13.6217 84.3279 14.7129 84.1817 15.9054H93.6125Z" fill="white" fill-opacity="0.8"/>
<path d="M0.846802 22.854L11.2405 12.0809H1.09355V8.69666H16.0552V12.1485L5.66148 22.9216H16.1936V26.2997H0.846802V22.854Z" fill="white" fill-opacity="0.8"/>
<path d="M27.8553 23.0486C29.6223 23.0873 31.3321 22.4092 32.6098 21.163L34.969 23.7549C33.4103 25.3887 31.2557 26.5987 27.8974 26.5987C22.1439 26.5987 18.4306 22.7046 18.4306 17.4348C18.4074 16.2547 18.6123 15.0815 19.0336 13.9822C19.4548 12.883 20.0841 11.8792 20.8855 11.0282C21.687 10.1772 22.6449 9.49568 23.7044 9.02257C24.764 8.54946 25.9046 8.29403 27.0609 8.27087H27.3799C33.0913 8.27087 36.3291 12.7054 36.0463 18.8597H22.5411C23.0226 21.4148 24.7799 23.0425 27.8553 23.0425V23.0486ZM31.9719 15.9054C31.6108 13.5223 30.2145 11.7657 27.416 11.7657C26.2404 11.6956 25.0827 12.0843 24.1774 12.853C23.2722 13.6217 22.6873 14.7129 22.5411 15.9054H31.9719Z" fill="white" fill-opacity="0.8"/>
<path d="M58.4781 17.4511C58.4781 11.8188 62.6006 8.29946 67.1385 8.29946C68.2273 8.2851 69.306 8.51407 70.2989 8.97032C71.2917 9.42657 72.1748 10.099 72.886 10.9405V0.548218H76.5572V26.2526H72.886V23.7958C72.1882 24.6726 71.306 25.3779 70.3048 25.8596C69.3037 26.3412 68.2091 26.5868 67.1024 26.5781C65.9603 26.5693 64.8311 26.331 63.7793 25.8768C62.7275 25.4226 61.7737 24.7614 60.9723 23.931C60.1709 23.1005 59.5376 22.1171 59.1086 21.0369C58.6796 19.9567 58.4633 18.8009 58.4721 17.6353C58.4721 17.5616 58.4721 17.4941 58.4721 17.4265L58.4781 17.4511ZM73.0906 17.3897C73.0676 15.8989 72.4682 14.4779 71.423 13.4361C70.3779 12.3944 68.9717 11.8165 67.5108 11.8282C66.0499 11.84 64.6528 12.4405 63.6239 13.4989C62.5949 14.5573 62.0175 15.9878 62.0175 17.4787C62.0175 18.9697 62.5949 20.4002 63.6239 21.4586C64.6528 22.517 66.0499 23.1175 67.5108 23.1292C68.9717 23.141 70.3779 22.563 71.423 21.5213C72.4682 20.4796 73.0676 19.0585 73.0906 17.5678V17.3897Z" fill="white" fill-opacity="0.8"/>
<path d="M100.075 22.5212L103.398 20.7585C103.838 21.5575 104.484 22.2188 105.266 22.6712C106.047 23.1236 106.935 23.3499 107.833 23.3258C109.909 23.3258 110.987 22.2387 110.987 21.0041C110.987 19.5976 108.977 19.2782 106.774 18.8237C103.831 18.2095 100.756 17.2022 100.756 13.5784C100.756 10.7961 103.349 8.22872 107.442 8.25943C110.662 8.25943 113.051 9.56154 114.405 11.6744L111.366 13.4003C110.94 12.7563 110.359 12.2338 109.68 11.8824C109.001 11.5309 108.245 11.3621 107.484 11.3919C105.51 11.3919 104.505 12.3807 104.505 13.5047C104.505 14.77 106.1 15.1262 108.591 15.6851C111.432 16.2993 114.652 17.2698 114.652 20.9304C114.652 23.3873 112.576 26.6364 107.653 26.5995C104.042 26.5995 101.52 25.1193 100.069 22.5151" fill="white" fill-opacity="0.8"/>
<path d="M124.622 18.4338L121.709 21.6707V26.2526H118.038V0.548218H121.709V17.3774L129.503 8.64342H133.975L127.216 16.1797L134.143 26.2526H129.991L124.622 18.4338Z" fill="white" fill-opacity="0.8"/>
<path d="M47.3828 8.29264C43.0195 8.29264 39.3663 11.1794 39.3663 15.9702V26.2519H43.1097V16.4247C43.1097 13.5379 44.7347 11.812 47.5092 11.812C50.2836 11.812 51.6678 13.5379 51.6678 16.4247V26.2519H55.3932V15.964C55.3932 11.1733 51.74 8.2865 47.3767 8.2865" fill="white" fill-opacity="0.8"/>
</g>
<defs>
<clipPath id="clip0_1_46">
<rect width="133.306" height="26.0484" fill="white" transform="translate(0.846802 0.548218)"/>
</clipPath>
</defs>
</svg>
