<svg width="95" height="31" viewBox="0 0 95 31" fill="none" xmlns="http://www.w3.org/2000/svg">
  <g clip-path="url(#clip0_1_43)">
  <path d="M40.7741 0.308845L24.8677 12.244C24.1201 9.30834 22.3924 6.69896 19.9569 4.82705C17.5213 2.95514 14.5165 1.92716 11.416 1.90513H0V29.3391H11.416C14.533 29.3802 17.57 28.3757 20.0186 26.4937C22.4674 24.6117 24.1792 21.9663 24.8677 19.0003L40.7741 30.9354L56.6803 19.0003V29.3391H74.6224V23.7707H62.7878V1.88657H56.2617V12.2254L41.1736 24.1604L37.9201 21.3762L45.2643 15.8078L53.0081 9.84948L48.5178 6.2671L33.4298 17.7938L30.1762 15.0096L45.2643 3.87265L40.7741 0.290283V0.308845ZM6.10754 7.45504H10.9974C12.0093 7.45695 13.0088 7.67223 13.9275 8.08613C14.8607 8.50483 15.701 9.09756 16.401 9.83092C17.1377 10.6028 17.7187 11.5033 18.1133 12.4852C18.9247 14.572 18.9247 16.8764 18.1133 18.9632C17.7443 19.9421 17.1963 20.8478 16.4961 21.636C15.8155 22.4109 14.9804 23.0424 14.0416 23.4923C13.0747 23.9477 12.0141 24.1825 10.9403 24.179H6.10754V7.4736V7.45504ZM94.9809 23.7707V29.3391H77.0578V1.88657H83.5839V23.7707H94.9999H94.9809Z" fill="white" fill-opacity="0.8"/>
  </g>
  <defs>
  <clipPath id="clip0_1_43">
  <rect width="94.9999" height="30.6451" fill="white" transform="translate(0 0.290283)"/>
  </clipPath>
  </defs>
  </svg>
  