<svg width="80" height="18" viewBox="0 0 80 18" fill="none" xmlns="http://www.w3.org/2000/svg">
<path d="M1.61122 14.5V4.7H6.06322C7.12722 4.7 8.06522 4.90533 8.87722 5.316C9.68922 5.71733 10.3239 6.282 10.7812 7.01C11.2386 7.738 11.4672 8.60133 11.4672 9.6C11.4672 10.5893 11.2386 11.4527 10.7812 12.19C10.3239 12.918 9.68922 13.4873 8.87722 13.898C8.06522 14.2993 7.12722 14.5 6.06322 14.5H1.61122ZM3.87922 12.638H5.95122C6.60455 12.638 7.16922 12.5167 7.64522 12.274C8.13055 12.022 8.50389 11.6673 8.76522 11.21C9.03589 10.7527 9.17122 10.216 9.17122 9.6C9.17122 8.97467 9.03589 8.438 8.76522 7.99C8.50389 7.53267 8.13055 7.18267 7.64522 6.94C7.16922 6.688 6.60455 6.562 5.95122 6.562H3.87922V12.638ZM15.1236 8.648H19.8416V10.412H15.1236V8.648ZM15.2916 12.68H20.6256V14.5H13.0376V4.7H20.4436V6.52H15.2916V12.68ZM25.0935 14.5L20.8655 4.7H23.3155L27.0115 13.38H25.5695L29.3215 4.7H31.5755L27.3335 14.5H25.0935ZM34.0597 14.668C33.3971 14.668 32.7857 14.5467 32.2257 14.304C31.6751 14.052 31.2224 13.6973 30.8677 13.24L32.1277 11.728C32.3984 12.0827 32.6831 12.3533 32.9817 12.54C33.2804 12.7173 33.6024 12.806 33.9477 12.806C34.8717 12.806 35.3337 12.2647 35.3337 11.182V6.52H31.8897V4.7H37.5877V11.056C37.5877 12.2693 37.2891 13.1747 36.6917 13.772C36.0944 14.3693 35.2171 14.668 34.0597 14.668ZM46.4079 4.7H48.6759V14.5H46.4079V4.7ZM41.9559 14.5H39.6879V4.7H41.9559V14.5ZM46.5759 10.482H41.7879V8.564H46.5759V10.482ZM55.6146 14.668C54.8399 14.668 54.1212 14.542 53.4586 14.29C52.8052 14.038 52.2359 13.6833 51.7506 13.226C51.2746 12.7687 50.9012 12.232 50.6306 11.616C50.3692 11 50.2386 10.328 50.2386 9.6C50.2386 8.872 50.3692 8.2 50.6306 7.584C50.9012 6.968 51.2792 6.43133 51.7646 5.974C52.2499 5.51667 52.8192 5.162 53.4726 4.91C54.1259 4.658 54.8352 4.532 55.6006 4.532C56.3752 4.532 57.0846 4.658 57.7286 4.91C58.3819 5.162 58.9466 5.51667 59.4226 5.974C59.9079 6.43133 60.2859 6.968 60.5566 7.584C60.8272 8.19067 60.9626 8.86267 60.9626 9.6C60.9626 10.328 60.8272 11.0047 60.5566 11.63C60.2859 12.246 59.9079 12.7827 59.4226 13.24C58.9466 13.688 58.3819 14.038 57.7286 14.29C57.0846 14.542 56.3799 14.668 55.6146 14.668ZM55.6006 12.736C56.0392 12.736 56.4406 12.6613 56.8046 12.512C57.1779 12.3627 57.5046 12.148 57.7846 11.868C58.0646 11.588 58.2792 11.2567 58.4286 10.874C58.5872 10.4913 58.6666 10.0667 58.6666 9.6C58.6666 9.13333 58.5872 8.70867 58.4286 8.326C58.2792 7.94333 58.0646 7.612 57.7846 7.332C57.5139 7.052 57.1919 6.83733 56.8186 6.688C56.4452 6.53867 56.0392 6.464 55.6006 6.464C55.1619 6.464 54.7559 6.53867 54.3826 6.688C54.0186 6.83733 53.6966 7.052 53.4166 7.332C53.1366 7.612 52.9172 7.94333 52.7586 8.326C52.6092 8.70867 52.5346 9.13333 52.5346 9.6C52.5346 10.0573 52.6092 10.482 52.7586 10.874C52.9172 11.2567 53.1319 11.588 53.4026 11.868C53.6826 12.148 54.0092 12.3627 54.3826 12.512C54.7559 12.6613 55.1619 12.736 55.6006 12.736ZM64.5646 14.5L61.3586 4.7H63.7106L66.4966 13.38H65.3206L68.2326 4.7H70.3326L73.1326 13.38H71.9986L74.8546 4.7H77.0246L73.8186 14.5H71.3826L68.9046 6.884H69.5486L67.0006 14.5H64.5646Z" fill="white"/>
</svg>
