<svg width="34" height="30" viewBox="0 0 34 30" fill="none" xmlns="http://www.w3.org/2000/svg">
<path fill-rule="evenodd" clip-rule="evenodd" d="M0.449219 3C0.449219 1.34315 1.79236 0 3.44922 0H30.4492C32.1061 0 33.4492 1.34315 33.4492 3C33.4492 4.65685 32.1061 6 30.4492 6H3.44922C1.79236 6 0.449219 4.65685 0.449219 3Z" fill="white"/>
<path fill-rule="evenodd" clip-rule="evenodd" d="M0.449219 15C0.449219 13.3431 1.79236 12 3.44922 12H30.4492C32.1061 12 33.4492 13.3431 33.4492 15C33.4492 16.6569 32.1061 18 30.4492 18H3.44922C1.79236 18 0.449219 16.6569 0.449219 15Z" fill="white"/>
<path fill-rule="evenodd" clip-rule="evenodd" d="M5.94922 27C5.94922 25.3431 7.29236 24 8.94922 24H24.9492C26.6061 24 27.9492 25.3431 27.9492 27C27.9492 28.6569 26.6061 30 24.9492 30H8.94922C7.29236 30 5.94922 28.6569 5.94922 27Z" fill="white"/>
</svg>
